<?xml version="1.0" encoding="UTF-8" standalone="no"?>
<svg
   xmlns:dc="http://purl.org/dc/elements/1.1/"
   xmlns:cc="http://creativecommons.org/ns#"
   xmlns:rdf="http://www.w3.org/1999/02/22-rdf-syntax-ns#"
   xmlns:svg="http://www.w3.org/2000/svg"
   xmlns="http://www.w3.org/2000/svg"
   xmlns:sodipodi="http://sodipodi.sourceforge.net/DTD/sodipodi-0.dtd"
   xmlns:inkscape="http://www.inkscape.org/namespaces/inkscape"
   width="100"
   height="145.912"
   viewBox="0 0 26.458333 38.605885"
   version="1.1"
   id="svg8"
   sodipodi:docname="ciseaux.svg"
   inkscape:version="1.0.2-2 (e86c870879, 2021-01-15)">
  <defs
     id="defs2" />
  <sodipodi:namedview
     id="base"
     pagecolor="#ffffff"
     bordercolor="#666666"
     borderopacity="1.0"
     inkscape:pageopacity="0.0"
     inkscape:pageshadow="2"
     inkscape:zoom="0.7"
     inkscape:cx="675.26516"
     inkscape:cy="592.24175"
     inkscape:document-units="mm"
     inkscape:current-layer="layer1"
     inkscape:document-rotation="0"
     showgrid="false"
     units="px"
     inkscape:window-width="1647"
     inkscape:window-height="1030"
     inkscape:window-x="128"
     inkscape:window-y="0"
     inkscape:window-maximized="0" />
  <metadata
     id="metadata5">
    <rdf:RDF>
      <cc:Work
         rdf:about="">
        <dc:format>image/svg+xml</dc:format>
        <dc:type
           rdf:resource="http://purl.org/dc/dcmitype/StillImage" />
        <dc:title></dc:title>
      </cc:Work>
    </rdf:RDF>
  </metadata>
  <g
     inkscape:label="Calque 1"
     inkscape:groupmode="layer"
     id="layer1">
    <path
       id="rect24"
       style="fill:#000000;stroke:none;stroke-width:0.650321;stroke-miterlimit:4;stroke-dasharray:none;stroke-opacity:1;paint-order:markers stroke fill"
       d="m 15.427121,10.656005 v 1.745436 h -1.004357 v -1.719318 h -4.139316 v 1.655589 H 9.2581963 V 10.783813 H 5.1192285 v 1.553899 H 3.6927908 v 5.285411 H 1.9097435 V 19.34244 H 0.22211596 v 7.132188 H 2.0051632 v 3.99932 h 1.655588 v 2.814569 h 1.4901674 v 5.310832 H 6.9976951 21.402071 v 0.0066 h 1.846777 v -5.311183 h 1.490168 v -4.145572 h 1.719317 V 16.79533 h -1.662205 v -1.056944 h -1.808467 v -1.553897 h -1.878469 v -1.719318 h -1.542754 v -1.809166 z m 0.587499,1.910507 h 3.247794 v 7.030848 h 1.846778 v -3.502365 h 1.521859 v 1.553549 h 1.980505 v 9.978797 h -1.719317 v 5.310834 h -1.490168 v 3.152372 H 6.9976951 v -3.15864 H 5.5075278 V 29.085819 H 3.8519402 V 26.270903 H 2.0688929 V 19.53363 h 1.6238979 v 5.157951 H 5.5392183 V 12.694321 H 8.9461629 V 19.4699 H 10.79294 v -6.877268 h 3.375253 v 6.940998 h 1.846427 z" />
    <path
       style="fill:#ffd08e;fill-opacity:1;stroke-width:0.12736"
       d="m 7.3967589,34.539553 c 0,-1.708431 0.028917,-1.665128 -1.1144038,-1.668803 l -0.5412833,-0.0018 -0.00142,-1.432805 c -7.365e-4,-0.787996 -0.036919,-1.647678 -0.080339,-1.91036 L 5.5803583,29.048152 H 4.7691789 3.9579994 v -1.46222 c 0,-1.449808 -0.00268,-1.46289 -0.3154282,-1.541387 -0.1734852,-0.04354 -0.5756265,-0.05847 -0.8936454,-0.03318 l -0.5782173,0.04599 0.033962,-3.185098 0.033964,-3.185101 0.6049612,-0.03882 0.6049629,-0.03882 v 2.554189 2.55419 H 4.594803 5.7410477 v -5.9859 -5.985945 h 1.4646464 1.4646446 v 2.476013 c 0,1.513294 0.049519,2.50662 0.1273618,2.554727 0.070049,0.04329 0.1273611,0.44786 0.1273611,0.899041 v 0.820327 H 9.8609097 10.79676 l 0.08304,-1.357099 c 0.04567,-0.746404 0.08303,-2.293834 0.08303,-3.438733 v -2.081637 l 1.496484,-1.35e-4 1.496487,-1.38e-4 -0.03719,2.503791 c -0.024,1.616038 0.0099,2.550842 0.09552,2.636497 0.07299,0.07299 0.13271,0.522435 0.13271,0.998762 v 0.866053 h 0.953158 0.953156 l 0.03388,-3.470575 0.03388,-3.470573 1.494432,-0.03587 1.494431,-0.03586 0.0339,3.474597 0.0339,3.474597 1.050723,0.03699 1.050725,0.03699 v -1.72452 -1.724519 h 0.630724 0.630727 l 0.03791,0.796004 0.03792,0.796002 0.859683,0.03766 0.859684,0.03766 v 4.83388 4.833881 H 23.57151 c -0.594349,0 -0.764163,0.04246 -0.764163,0.191041 0,0.105073 -0.05732,0.191041 -0.127361,0.191041 -0.08052,0 -0.12736,0.906854 -0.12736,2.46584 v 2.465842 l -0.774223,0.0702 c -0.425824,0.03862 -0.812683,0.108505 -0.859684,0.155316 -0.04701,0.04682 -0.104718,0.739585 -0.128259,1.539492 l -0.0428,1.454378 H 14.072201 7.396734 Z"
       id="path254" />
    <rect
       style="fill:#000000;fill-opacity:1;stroke:none;stroke-width:0.65032;stroke-miterlimit:4;stroke-dasharray:none;stroke-opacity:1;paint-order:markers stroke fill"
       id="rect1197"
       width="2.3414946"
       height="7.339684"
       x="1.7110935"
       y="7.1145453" />
    <rect
       style="fill:#000000;fill-opacity:1;stroke:none;stroke-width:0.65032;stroke-miterlimit:4;stroke-dasharray:none;stroke-opacity:1;paint-order:markers stroke fill"
       id="rect1199"
       width="1.711092"
       height="5.268363"
       x="0"
       y="1.8461815" />
    <rect
       style="fill:#000000;fill-opacity:1;stroke:none;stroke-width:0.65032;stroke-miterlimit:4;stroke-dasharray:none;stroke-opacity:1;paint-order:markers stroke fill"
       id="rect1201"
       width="4.5028744"
       height="2.2964659"
       x="1.4409202"
       y="0" />
    <rect
       style="fill:#000000;fill-opacity:1;stroke:none;stroke-width:0.65032;stroke-miterlimit:4;stroke-dasharray:none;stroke-opacity:1;paint-order:markers stroke fill"
       id="rect1203"
       width="2.2064085"
       height="5.268363"
       x="4.9531631"
       y="1.8912058" />
    <rect
       style="fill:#000000;fill-opacity:1;stroke:none;stroke-width:0.65032;stroke-miterlimit:4;stroke-dasharray:none;stroke-opacity:1;paint-order:markers stroke fill"
       id="rect1205"
       width="2.0986245"
       height="5.1781421"
       x="7.1595693"
       y="7.1595693" />
    <rect
       style="fill:#000000;fill-opacity:1;stroke:none;stroke-width:0.65032;stroke-miterlimit:4;stroke-dasharray:none;stroke-opacity:1;paint-order:markers stroke fill"
       id="rect1207"
       width="2.3414934"
       height="5.2233329"
       x="10.176497"
       y="7.2496281" />
    <rect
       style="fill:#000000;fill-opacity:1;stroke:none;stroke-width:0.65032;stroke-miterlimit:4;stroke-dasharray:none;stroke-opacity:1;paint-order:markers stroke fill"
       id="rect1209"
       width="2.1613798"
       height="5.7186503"
       x="11.977648"
       y="1.7561229" />
    <rect
       style="fill:#000000;fill-opacity:1;stroke:none;stroke-width:0.65032;stroke-miterlimit:4;stroke-dasharray:none;stroke-opacity:1;paint-order:markers stroke fill"
       id="rect1211"
       width="3.8724718"
       height="1.9362359"
       x="13.823827"
       y="0.13508792" />
    <rect
       style="fill:#000000;fill-opacity:1;stroke:none;stroke-width:0.65032;stroke-miterlimit:4;stroke-dasharray:none;stroke-opacity:1;paint-order:markers stroke fill"
       id="rect1213"
       width="2.3865232"
       height="5.8987656"
       x="16.975836"
       y="1.4409229" />
    <rect
       style="fill:#000000;fill-opacity:1;stroke:none;stroke-width:0.65032;stroke-miterlimit:4;stroke-dasharray:none;stroke-opacity:1;paint-order:markers stroke fill"
       id="rect1215"
       width="1.9362359"
       height="5.0432191"
       x="15.534918"
       y="6.9344277" />
    <rect
       style="fill:#ffd08e;fill-opacity:1;stroke:none;stroke-width:0.65032;stroke-miterlimit:4;stroke-dasharray:none;stroke-opacity:1;paint-order:markers stroke fill"
       id="rect1219"
       width="3.230814"
       height="4.9644156"
       x="1.7223535"
       y="2.1951611" />
    <rect
       style="fill:#ffd08e;fill-opacity:1;stroke:none;stroke-width:0.65032;stroke-miterlimit:4;stroke-dasharray:none;stroke-opacity:1;paint-order:markers stroke fill"
       id="rect1221"
       width="0.46154222"
       height="0.48405978"
       x="1.7223535"
       y="6.6755118"
       ry="0" />
    <rect
       style="fill:#ffd08e;fill-opacity:1;stroke:none;stroke-width:0.65032;stroke-miterlimit:4;stroke-dasharray:none;stroke-opacity:1;paint-order:markers stroke fill"
       id="rect1223"
       width="3.106982"
       height="5.2231646"
       x="4.0525875"
       y="7.1145453" />
    <rect
       style="fill:#ffd08e;fill-opacity:1;stroke:none;stroke-width:0.65032;stroke-miterlimit:4;stroke-dasharray:none;stroke-opacity:1;paint-order:markers stroke fill"
       id="rect1225"
       width="3.9331942"
       height="12.634946"
       x="5.1192288"
       y="12.337709" />
    <rect
       style="fill:#ffd08e;fill-opacity:1;stroke:none;stroke-width:0.65032;stroke-miterlimit:4;stroke-dasharray:none;stroke-opacity:1;paint-order:markers stroke fill"
       id="rect1227"
       width="2.1613765"
       height="8.6201172"
       x="11.977648"
       y="7.4747744" />
    <rect
       style="fill:#ffd08e;fill-opacity:1;stroke:none;stroke-width:5.57801;stroke-miterlimit:4;stroke-dasharray:none;stroke-opacity:1;paint-order:markers stroke fill"
       id="rect1229"
       width="2.1613791"
       height="14.493215"
       x="11.977648"
       y="7.2777777" />
    <rect
       style="fill:#ffd08e;fill-opacity:1;stroke:none;stroke-width:0.65032;stroke-miterlimit:4;stroke-dasharray:none;stroke-opacity:1;paint-order:markers stroke fill"
       id="rect1231"
       width="1.8003591"
       height="2.5312891"
       x="13.626762"
       y="9.8701458" />
    <rect
       style="fill:#ffd08e;fill-opacity:1;stroke:none;stroke-width:0.65032;stroke-miterlimit:4;stroke-dasharray:none;stroke-opacity:1;paint-order:markers stroke fill"
       id="rect1233"
       width="1.395891"
       height="5.1555076"
       x="14.139027"
       y="7.2777777" />
    <rect
       style="fill:#ffd08e;fill-opacity:1;stroke:none;stroke-width:0.65032;stroke-miterlimit:4;stroke-dasharray:none;stroke-opacity:1;paint-order:markers stroke fill"
       id="rect1235"
       width="3.3431635"
       height="8.6228056"
       x="15.91925"
       y="12.566512" />
    <rect
       style="fill:#ffd08e;fill-opacity:1;stroke:none;stroke-width:0.798965;stroke-miterlimit:4;stroke-dasharray:none;stroke-opacity:1;paint-order:markers stroke fill"
       id="rect1237"
       width="2.0139661"
       height="11.551601"
       x="5.1192288"
       y="7.1353426" />
    <rect
       style="fill:#ffd08e;fill-opacity:1;stroke:none;stroke-width:0.65032;stroke-miterlimit:4;stroke-dasharray:none;stroke-opacity:1;paint-order:markers stroke fill"
       id="rect1239"
       width="3.1520088"
       height="5.2683635"
       x="13.823827"
       y="2.0713229" />
  </g>
</svg>
