<?xml version="1.0" encoding="UTF-8" standalone="no"?>
<svg
   xmlns:dc="http://purl.org/dc/elements/1.1/"
   xmlns:cc="http://creativecommons.org/ns#"
   xmlns:rdf="http://www.w3.org/1999/02/22-rdf-syntax-ns#"
   xmlns:svg="http://www.w3.org/2000/svg"
   xmlns="http://www.w3.org/2000/svg"
   xmlns:sodipodi="http://sodipodi.sourceforge.net/DTD/sodipodi-0.dtd"
   xmlns:inkscape="http://www.inkscape.org/namespaces/inkscape"
   width="100"
   height="133.763"
   viewBox="0 0 26.458333 35.391462"
   version="1.1"
   id="svg8"
   sodipodi:docname="feuille.svg"
   inkscape:version="1.0.2-2 (e86c870879, 2021-01-15)">
  <defs
     id="defs2" />
  <sodipodi:namedview
     id="base"
     pagecolor="#ffffff"
     bordercolor="#666666"
     borderopacity="1.0"
     inkscape:pageopacity="0.0"
     inkscape:pageshadow="2"
     inkscape:zoom="0.49497475"
     inkscape:cx="855.34537"
     inkscape:cy="537.81039"
     inkscape:document-units="mm"
     inkscape:current-layer="layer1"
     inkscape:document-rotation="0"
     showgrid="false"
     units="px"
     inkscape:window-width="1647"
     inkscape:window-height="1030"
     inkscape:window-x="128"
     inkscape:window-y="0"
     inkscape:window-maximized="0" />
  <metadata
     id="metadata5">
    <rdf:RDF>
      <cc:Work
         rdf:about="">
        <dc:format>image/svg+xml</dc:format>
        <dc:type
           rdf:resource="http://purl.org/dc/dcmitype/StillImage" />
        <dc:title></dc:title>
      </cc:Work>
    </rdf:RDF>
  </metadata>
  <g
     inkscape:label="Calque 1"
     inkscape:groupmode="layer"
     id="layer1">
    <path
       id="rect24"
       style="fill:#000000;stroke:none;stroke-width:0.574077;stroke-miterlimit:4;stroke-dasharray:none;stroke-opacity:1;paint-order:markers stroke fill"
       d="m 12.522556,0 v 1.4707101 h -1.708962 v 1.47071 H 7.6336131 V 4.5314113 H 6.2422182 V 16.868591 H 5.1026017 V 15.126118 H 0 v 1.742473 3.035799 h 1.6862132 v -3.035799 h 3.1015877 v 1.517744 H 3.2980312 v 1.518055 h -1.611818 v 1.517744 h 1.611818 v 3.260218 h 1.5740041 v 3.530442 h 1.4614863 v 2.48459 h 1.3154631 v 4.688195 H 9.279247 21.994862 v 0.0058 h 1.630264 v -4.688492 h 1.315461 v -3.659559 h 1.517746 V 16.137847 12.163178 h -1.811949 v 3.04164 H 23.394558 V 13.833099 H 21.736321 V 12.315352 9.3013802 h 1.35973 v 2.8617978 h 1.550333 V 9.142137 h -1.47071 V 7.6317683 h -1.439353 v -4.571067 h -1.70097 V 10.718293 H 17.239034 V 3.0607013 h 2.796317 V 1.4707101 H 15.543599 V 3.0607013 10.741349 H 12.63292 V 1.4707101 h 2.910679 V 0 Z M 7.9917602,4.5710684 H 10.813594 V 10.831116 H 7.9917602 Z m 9.2472738,7.8337446 h 2.796317 v 6.206556 h 1.70097 v -3.09175 h 1.343436 v 1.371412 h 1.566627 v 8.80889 h -1.336059 v 4.688195 h -1.315463 v 2.782791 H 9.279247 V 30.382583 H 7.9637857 V 26.987408 H 6.5022975 V 24.502511 H 4.9282933 v -5.9474 h 1.3139249 v 4.553236 h 1.749542 v -10.59071 h 2.8218338 v 6.004272 H 12.63292 V 12.42787 h 2.910679 v 6.127241 h 1.695435 z" />
    <path
       id="path254"
       style="fill:#ffd08e;fill-opacity:1;stroke-width:0.112429"
       d="M 12.323961,1.4707101 V 18.521909 H 11.806875 11.09181 V 4.5710684 H 7.7129286 V 23.131405 H 7.1583374 6.146302 V 20.876767 19.960339 H 6.3522758 V 18.386335 H 5.0647894 V 16.868591 H 1.6862132 v 3.091748 h 1.611818 1.7667582 l -0.016601,1.541726 -0.029819,2.811688 0.5103205,-0.04058 c 0.2807393,-0.02237 0.6357024,-0.0092 0.7888467,0.0292 0.2760696,0.0693 0.2785247,0.08082 0.2785247,1.360652 v 1.29087 h 0.7159879 0.7162943 l 0.069478,0.421782 c 0.038323,0.231886 0.070419,0.990562 0.071014,1.686213 l 0.00125,1.265045 0.477735,0.0015 c 1.0092703,0.0033 0.9837527,-0.03497 0.9837527,1.473168 v 1.336059 h 5.8929858 5.892986 l 0.0375,-1.284104 c 0.02078,-0.706127 0.07198,-1.317462 0.113439,-1.358808 0.04149,-0.04132 0.38282,-0.103024 0.758718,-0.13711 l 0.683402,-0.0621 v -2.1765 c 0,-1.37621 0.04143,-2.17686 0.112516,-2.17686 0.06186,0 0.112517,-0.07603 0.112517,-0.168774 0,-0.02909 0.0089,-0.053 0.02613,-0.07348 h 1.566319 V 12.315352 H 23.175689 V 9.3013802 h -1.510676 v 9.3342758 l -0.70615,-0.0249 -0.923497,-0.03259 V 3.0607013 H 17.054273 V 18.634118 h -0.62253 -0.841417 v -0.764253 c 0,-0.245011 -0.01905,-0.473123 -0.04673,-0.640975 V 1.4707101 Z" />
    <path
       style="fill:#ffd08e;fill-opacity:1;stroke:none;stroke-width:0.205028;stroke-miterlimit:4;stroke-dasharray:none;stroke-opacity:1;paint-order:markers stroke fill"
       d="M 1.9213915,19.706893 C 1.90078,19.68628 1.8839146,19.079166 1.8839146,18.357748 V 17.046077 H 3.233061 4.5822076 v 0.646466 0.646466 H 3.9357421 3.289275 v 0.70268 0.702681 H 2.624071 c -0.3658615,0 -0.6820679,-0.01686 -0.7026795,-0.03748 z"
       id="path1093" />
    <path
       style="fill:#ffd08e;fill-opacity:1;stroke:none;stroke-width:0.205028;stroke-miterlimit:4;stroke-dasharray:none;stroke-opacity:1;paint-order:markers stroke fill"
       d="M 1.8839145,18.395223 V 17.046077 H 3.233061 4.5822076 v 0.646466 0.646466 H 3.9357421 3.289275 v 0.70268 0.702681 H 2.5865955 1.8839145 Z"
       id="path1095" />
    <path
       style="fill:#ffd08e;fill-opacity:1;stroke:none;stroke-width:0.205028;stroke-miterlimit:4;stroke-dasharray:none;stroke-opacity:1;paint-order:markers stroke fill"
       d="M 1.8839145,18.395223 V 17.046077 H 3.233061 4.5822076 v 0.646466 0.646466 H 3.9357421 3.289275 v 0.70268 0.702681 H 2.5865955 1.8839145 Z"
       id="path1097" />
    <path
       style="fill:#ffd08e;fill-opacity:1;stroke:none;stroke-width:0.205028;stroke-miterlimit:4;stroke-dasharray:none;stroke-opacity:1;paint-order:markers stroke fill"
       d="M 1.8839145,18.395223 V 17.046077 H 3.233061 4.5822076 v 0.646466 0.646466 H 3.9357421 3.289275 v 0.70268 0.702681 H 2.5865955 1.8839145 Z"
       id="path1099" />
    <path
       style="fill:#ffd08e;fill-opacity:1;stroke:none;stroke-width:0.205028;stroke-miterlimit:4;stroke-dasharray:none;stroke-opacity:1;paint-order:markers stroke fill"
       d="M 1.8839145,18.395223 V 17.046077 H 3.233061 4.5822076 v 0.646466 0.646466 H 3.9357421 3.289275 v 0.70268 0.702681 H 2.5865955 1.8839145 Z"
       id="path1101" />
    <path
       style="fill:#ffd08e;fill-opacity:1;stroke:none;stroke-width:0.205028;stroke-miterlimit:4;stroke-dasharray:none;stroke-opacity:1;paint-order:markers stroke fill"
       d="M 1.8839145,18.395223 V 17.046077 H 3.233061 4.5822076 v 0.646466 0.646466 H 3.9357421 3.289275 v 0.70268 0.702681 H 2.5865955 1.8839145 Z"
       id="path1103" />
    <path
       style="fill:#ffd08e;fill-opacity:1;stroke:none;stroke-width:0.205028;stroke-miterlimit:4;stroke-dasharray:none;stroke-opacity:1;paint-order:markers stroke fill"
       d="M 1.8839145,18.395223 V 17.046077 H 3.233061 4.5822076 v 0.646466 0.646466 H 3.9357421 3.289275 v 0.70268 0.702681 H 2.5865955 1.8839145 Z"
       id="path1105" />
    <path
       style="fill:#ffd08e;fill-opacity:1;stroke:none;stroke-width:0.205028;stroke-miterlimit:4;stroke-dasharray:none;stroke-opacity:1;paint-order:markers stroke fill"
       d="M 1.8839145,18.395223 V 17.046077 H 3.233061 4.5822076 v 0.646466 0.646466 H 3.9357421 3.289275 v 0.70268 0.702681 H 2.5865955 1.8839145 Z"
       id="path1107" />
    <path
       style="fill:#ffd08e;fill-opacity:1;stroke:none;stroke-width:0.205028;stroke-miterlimit:4;stroke-dasharray:none;stroke-opacity:1;paint-order:markers stroke fill"
       d="M 1.8839145,18.395223 V 17.046077 H 3.233061 4.5822076 v 0.646466 0.646466 H 3.9357421 3.289275 v 0.70268 0.702681 H 2.5865955 1.8839145 Z"
       id="path1109" />
    <path
       style="fill:#ffd08e;fill-opacity:1;stroke:none;stroke-width:0.205028;stroke-miterlimit:4;stroke-dasharray:none;stroke-opacity:1;paint-order:markers stroke fill"
       d="M 1.8839145,18.395223 V 17.046077 H 3.233061 4.5822076 v 0.646466 0.646466 H 3.9357421 3.289275 v 0.70268 0.702681 H 2.5865955 1.8839145 Z"
       id="path1111" />
    <path
       style="fill:#ffd08e;fill-opacity:1;stroke:none;stroke-width:0.205028;stroke-miterlimit:4;stroke-dasharray:none;stroke-opacity:1;paint-order:markers stroke fill"
       d="M 1.8839145,18.395223 V 17.046077 H 3.233061 4.5822076 v 0.646466 0.646466 H 3.9357421 3.289275 v 0.70268 0.702681 H 2.5865955 1.8839145 Z"
       id="path1113" />
    <path
       style="fill:#ffd08e;fill-opacity:1;stroke:none;stroke-width:0.205028;stroke-miterlimit:4;stroke-dasharray:none;stroke-opacity:1;paint-order:markers stroke fill"
       d="M 1.8839145,18.395223 V 17.046077 H 3.233061 4.5822076 v 0.646466 0.646466 H 3.9357421 3.289275 v 0.70268 0.702681 H 2.5865955 1.8839145 Z"
       id="path1115" />
    <path
       style="fill:#ffd08e;fill-opacity:1;stroke:none;stroke-width:0.205028;stroke-miterlimit:4;stroke-dasharray:none;stroke-opacity:1;paint-order:markers stroke fill"
       d="M 1.8839145,18.395223 V 17.046077 H 3.233061 4.5822076 v 0.646466 0.646466 H 3.9357421 3.289275 v 0.70268 0.702681 H 2.5865955 1.8839145 Z"
       id="path1117" />
    <path
       style="fill:#ffd08e;fill-opacity:1;stroke:none;stroke-width:0.205028;stroke-miterlimit:4;stroke-dasharray:none;stroke-opacity:1;paint-order:markers stroke fill"
       d="M 1.8839145,18.395223 V 17.046077 H 3.233061 4.5822076 v 0.646466 0.646466 H 3.9357421 3.289275 v 0.70268 0.702681 H 2.5865955 1.8839145 Z"
       id="path1119" />
    <path
       style="fill:#ffd08e;fill-opacity:1;stroke:none;stroke-width:0.205028;stroke-miterlimit:4;stroke-dasharray:none;stroke-opacity:1;paint-order:markers stroke fill"
       d="M 1.8839145,18.395223 V 17.046077 H 3.233061 4.5822076 v 0.646466 0.646466 H 3.9357421 3.289275 v 0.70268 0.702681 H 2.5865955 1.8839145 Z"
       id="path1121" />
    <path
       style="fill:#ffd08e;fill-opacity:1;stroke:none;stroke-width:0.205028;stroke-miterlimit:4;stroke-dasharray:none;stroke-opacity:1;paint-order:markers stroke fill"
       d="M 1.8839145,18.395223 V 17.046077 H 3.233061 4.5822076 v 0.646466 0.646466 H 3.9357421 3.289275 v 0.70268 0.702681 H 2.5865955 1.8839145 Z"
       id="path1123" />
    <rect
       style="fill:#ffd08e;fill-opacity:1;stroke:none;stroke-width:0.574077;stroke-miterlimit:4;stroke-dasharray:none;stroke-opacity:1;paint-order:markers stroke fill"
       id="rect1127"
       width="1.4239826"
       height="6.1161752"
       x="4.9282918"
       y="18.386337" />
    <rect
       style="fill:#000000;fill-opacity:1;stroke:none;stroke-width:0.574077;stroke-miterlimit:4;stroke-dasharray:none;stroke-opacity:1;paint-order:markers stroke fill"
       id="rect1157"
       width="1.5274709"
       height="13.417439"
       x="24.828072"
       y="12.28249" />
  </g>
</svg>
