<svg xmlns="http://www.w3.org/2000/svg" width="1665.592" height="463.643" viewBox="0 0 1665.592 463.643">
  <g id="logo" transform="translate(-93.5 -369)">
    <path id="Tracé_1" data-name="Tracé 1" d="M216.944-328l-66.5,66.061H87.926V-328ZM82.606-328v90.889L150-169.72H56.448l-39.9-39.9v-52.317ZM150-169.72l66.061,66.061v.443L150-37.155H56l-66.5-66.061L56-169.72v66.5H150ZM467.887-261.5v123.7l-66.061-66.061V-328Zm-66.061,64.731L467.887-130.7v93.549L308.277-196.322V-37.155l-66.061-66.061V-328l66.061,66.5v64.731ZM564.983-37.155l-66.061-66.061V-261.5l66.061,66.061Zm0-290.845v66.5H498.922V-328Zm242.075,0L741-261.5H661.636V-37.155l-66.061-66.061V-261.5L661.636-328Zm-140.1,172.024v-66.061h109.51l-66.061,66.061ZM993.714-328l66.061,66.061V-37.155l-66.061-66.5ZM892.627-103.216h93.549l66.061,66.061H958.688ZM826.566-261.939,892.627-328v224.784l-66.061-66.5Zm263.8,158.28v-216.8l66.5,66.061V-37.155Zm241.189-158.28L1397.616-328V-37.155l-66.061-66.5Zm-81.135,0h81.135L1244.213-174.6l-47.883-47.44L1090.366-328h93.549ZM1494.712-37.155l-66.061-66.061V-261.5l66.061,66.061Zm0-290.845v66.5h-66.061V-328Z" transform="translate(104 697)" fill="#fff"/>
    <path id="Tracé_2" data-name="Tracé 2" d="M41.392,7.447H59.4Q74.3,8.14,74.3,51.783v2.6Q62.694,65.638,60.789,163.49L46.761,225.837v12.3q-11.777,0-11.6,6.408-15.414,0-26.844-21.822H2.425L30.481,88.672V85.555a37.713,37.713,0,0,1-9.352-12.47q0-5.542-14.721-9.525L0,29.269H2.944Q27.364,12.47,41.392,7.447ZM30.827,116.556,31,129.2h2.944l-.173-12.643ZM28.056,138.55l-2.771,15.587v3.117H28.23L31,141.668V138.55ZM139.243,0h2.944l-6.235,6.235h-2.944Zm37.235,0q-.52,6.235,22.168,9.352l.173-3.117q46.414,32.213,43.817,72.739l-1.212,15.933q-11.257,29.442-53.861,79.147h11.6L198.993,177,181.5,180.289l-.346,6.408h2.771l14.548-3.291,2.6,3.291.173-3.291,2.771,3.291H212.5l3.117-3.291q17.838,4.157,24.766,15.933h8.486q-6.235,34.638-25.112,34.638a275.972,275.972,0,0,0-101.488,19.051l.346-3.291-3.117,3.291q-26.5,0-44.683-15.933H66.158l.346-3.117q15.067-13.855,15.933-25.285L109.628,186.7h-2.771L76.549,211.982H70.834l.346-6.408Q105.3,189.121,128.852,155l-2.6-3.291h2.771l2.6,3.291,23.554-9.525-2.6-3.117.173-3.291q20.783,0,37.928-53.688h-5.715q-.866,12.643-12.643,18.878l.173-2.944q15.933-25.285,16.8-38.1.346-6.235-16.28-12.643-23.38,6.408-38.448,19.051h-5.715l-11.257-3.291-11.6,3.291q-14.375,0-13.335-15.933,31-44.336,51.61-44.336ZM115.343,15.76h2.771Q90.4,45.549,89.885,53.688H84.169l.346-6.235Zm56.979,88.5-.346,3.291-9.179,9.525.173-3.117Zm-30.481,28.576h2.771l-.346,6.235-35.85,22.168H102.7ZM400.93,7.793A27.585,27.585,0,0,1,417.383,24.42l-.693,10.045L387.075,81.052,383.438,91.1q43.124,23.207,43.124,53.688a28.21,28.21,0,0,1-.173,3.117l-.346,6.754q-3.637,52.476-46.241,73.259l-1.732-16.626h-2.944q-8.659,0-33.945,23.207h-5.888l-.346,3.291h11.777l-6.235,6.581-8.659-3.117L316.415,251.3l-37.062-16.8,2.771,3.291-.52,6.581h-2.771q-14.548-5.2-13.162-23.034-10.045-4.157-15.587-30.135l14.894-3.291L264.8,191.2l3.117-3.291h2.944q14.2,16.8,62.521,29.962.693-7.967,33.945-23.207l3.291-3.464.52-6.581L361.79,191.2h-2.944l.173-3.291q16.28-22.514,17.146-33.252l-11.43-6.754-12.123,6.754-8.659-3.464q-3.637,10.045-18.358,10.045h-5.888q-5.888,0-4.849-13.335l-19.743-13.335q-5.888,0-5.2-10.045,30.135-69.968,60.789-69.968l.693-10.045L291.822,54.554h-2.944l.346-3.291h5.715l.346-3.464q-35.33,0-34.638-10.045l.346-3.291,3.464-10.045-5.2-6.581.173-3.464,20.783-3.117h5.715v3.117q-11.777,0-12.3,6.754Q326.806,7.793,400.93,7.793Zm-76.9,50.051-.346,3.464q-20.783,23.034-29.962,49.878h-2.944l-2.6-3.291.173-3.291Q298.923,78.454,324.035,57.845Z" transform="matrix(0.996, -0.087, 0.087, 0.996, 1312.1, 580.579)" fill="#00ffea"/>
  </g>
</svg>
