<?xml version="1.0" encoding="UTF-8" standalone="no"?>
<svg
   xmlns:dc="http://purl.org/dc/elements/1.1/"
   xmlns:cc="http://creativecommons.org/ns#"
   xmlns:rdf="http://www.w3.org/1999/02/22-rdf-syntax-ns#"
   xmlns:svg="http://www.w3.org/2000/svg"
   xmlns="http://www.w3.org/2000/svg"
   xmlns:sodipodi="http://sodipodi.sourceforge.net/DTD/sodipodi-0.dtd"
   xmlns:inkscape="http://www.inkscape.org/namespaces/inkscape"
   width="100"
   height="170.01601"
   viewBox="0 0 26.458333 44.983402"
   version="1.1"
   id="svg8"
   inkscape:version="1.0.2-2 (e86c870879, 2021-01-15)"
   sodipodi:docname="persoMario.svg">
  <defs
     id="defs2" />
  <sodipodi:namedview
     id="base"
     pagecolor="#ffffff"
     bordercolor="#666666"
     borderopacity="1.0"
     inkscape:pageopacity="0.0"
     inkscape:pageshadow="2"
     inkscape:zoom="0.7"
     inkscape:cx="196.40094"
     inkscape:cy="92.195421"
     inkscape:document-units="mm"
     inkscape:current-layer="layer1"
     inkscape:document-rotation="0"
     showgrid="false"
     units="px"
     showguides="false"
     inkscape:window-width="1647"
     inkscape:window-height="1030"
     inkscape:window-x="192"
     inkscape:window-y="0"
     inkscape:window-maximized="0" />
  <metadata
     id="metadata5">
    <rdf:RDF>
      <cc:Work
         rdf:about="">
        <dc:format>image/svg+xml</dc:format>
        <dc:type
           rdf:resource="http://purl.org/dc/dcmitype/StillImage" />
        <dc:title></dc:title>
      </cc:Work>
    </rdf:RDF>
  </metadata>
  <g
     inkscape:label="Calque 1"
     inkscape:groupmode="layer"
     id="layer1">
    <path
       id="rect25-27-9-9-2-40-6"
       style="fill:#ffffff;fill-rule:evenodd;stroke-width:0.0693259"
       d="m 11.254178,0 v 1.8440606 h 7.121269 V 0 Z m 7.121269,1.8440606 V 5.6907705 H 13.129956 V 7.2803509 H 11.381541 9.4740439 V 8.9970478 H 8.0750169 V 10.586628 H 5.1503379 V 7.3757502 H 3.2428418 V 10.586628 H 1.5261444 v 1.843814 4.641625 h 1.9074961 v -4.641625 h 3.1258053 v 3.306279 h 1.5155711 v 1.526143 H 9.9825141 V 15.736721 H 11.508658 V 13.892906 H 9.9825141 V 10.586628 H 11.381541 V 9.124165 h 8.26557 v 1.572123 h -1.207982 v 3.196618 h 0.11802 v 0.04057 h 4.269123 v -1.844061 h -1.271663 v -1.035132 h 1.74866 V 9.1241668 h 1.49418 V 7.2803509 h -1.49418 V 5.6907705 H 20.282943 V 1.8440606 Z m 4.450825,12.0894144 v 3.438066 h -1.706125 v 1.592039 h -2.967709 v -1.576057 h -3.015652 v -1.620314 h -1.907497 v 1.620314 h -1.815538 v 1.843814 h 2.967708 v 1.576304 h 3.770979 v 1.223964 H 10.046196 V 20.378343 H 8.3294982 V 18.725327 H 5.4682538 v -1.65326 H 3.4336405 v 1.843813 h 1.4622169 v 1.462463 H 3.4336405 v 1.557863 H 1.7803789 v 3.306277 H 0 v 6.485438 h 1.7803789 v 3.497077 h 1.907496 v 1.365586 H 5.595371 v 3.306278 h 1.1521692 v 1.716699 h 1.9074952 2.6628236 v 1.462463 H 5.595371 V 41.710435 H 3.6878749 v 1.617364 H 5.595371 v 1.65572 h 7.629984 V 43.076024 41.56537 h -1.907496 v -1.668508 h 1.907496 v -1.589579 h 1.907497 v 1.589579 h 1.215605 v 3.242596 h 1.772757 v 1.844061 h 3.242841 v -1.907495 h -2.416211 v -3.237926 h 1.335099 v -1.589579 h 1.403946 v -1.716696 h 2.863949 v -1.907498 h -1.01989 v -6.031307 h 1.838651 v -3.196617 h -1.907495 v 3.056221 h -1.574091 v -3.056221 h 1.574091 V 23.55234 H 21.42749 v 1.660883 h -1.525898 v -1.401239 h -1.58958 V 22.17618 h 1.747924 v -1.368539 h 2.904026 v -1.592284 h 3.432165 v -1.843816 h -1.662359 v -3.438066 z m 1.724566,22.598348 v 3.196616 h 1.907495 v -3.196616 z m 0,3.196616 h -1.907497 v 1.730219 h -1.279286 v 1.617366 h 1.907496 v -1.221753 h 1.279287 z M 3.6878749,41.710435 v -5.119851 h -1.907496 v 5.119851 z M 5.1503379,7.3757502 h 2.034613 V 5.5316898 H 5.1503379 Z M 7.1849509,5.5316898 H 9.2195642 V 3.6878749 H 7.1849509 Z M 9.2195642,3.6878749 H 11.254178 V 1.8440606 H 9.2195642 Z m 5.6588068,7.0489831 v 3.196617 h 1.907497 V 10.736858 Z M 3.6878749,22.222404 h 4.5779418 v 1.653017 1.592282 h 4.9595383 v -1.592282 h 2.957627 v 1.780377 h 1.986422 v 1.40124 h 1.429762 v 2.944841 h 2.024286 v 3.412742 h -1.340509 -1.335099 v -3.120396 h -2.599387 v 3.17916 h -1.215605 -1.907497 v -1.80644 h 1.159791 V 29.82313 h -2.034613 v 1.679077 H 11.317859 8.6550354 V 30.167109 H 7.1060257 v -2.603815 h 1.159791 V 25.467703 H 6.2312031 v 1.410585 H 5.1985294 v 3.387169 h 1.5490108 v 1.17479 H 5.595371 3.6878749 V 30.074904 H 1.9074962 V 25.560399 H 3.6878749 Z M 14.385146,29.82313 h 1.907497 v -3.19662 h -1.032674 v -1.158807 h -2.034614 v 1.843816 h 1.159791 z" />
  </g>
  <g
     inkscape:groupmode="layer"
     id="layer2"
     inkscape:label="Calque 2" />
</svg>
